<?xml version="1.0" encoding="UTF-8"?>
<svg version="1.1" xmlns="http://www.w3.org/2000/svg" width="208" height="208">
<path d="M0 0 C68.64 0 137.28 0 208 0 C208 68.64 208 137.28 208 208 C139.36 208 70.72 208 0 208 C0 139.36 0 70.72 0 0 Z " fill="#011444" transform="translate(0,0)"/>
<path d="M0 0 C27.06 0 54.12 0 82 0 C82 27.06 82 54.12 82 82 C54.94 82 27.88 82 0 82 C0 54.94 0 27.88 0 0 Z " fill="#4DA3FC" transform="translate(90,30)"/>
<path d="M0 0 C17.82 0 35.64 0 54 0 C54 28.38 54 56.76 54 86 C43.44 86 32.88 86 22 86 C22 75.44 22 64.88 22 54 C14.74 54 7.48 54 0 54 C0 36.18 0 18.36 0 0 Z " fill="#D0133F" transform="translate(36,58)"/>
<path d="M0 0 C10.56 0 21.12 0 32 0 C32 10.56 32 21.12 32 32 C21.44 32 10.88 32 0 32 C0 21.44 0 10.88 0 0 Z " fill="#9DD059" transform="translate(58,112)"/>
<path d="M0 0 C3.17625 -0.061875 6.3525 -0.12375 9.625 -0.1875 C11.1092749 -0.22846802 11.1092749 -0.22846802 12.62353516 -0.27026367 C18.8059325 -0.32837596 22.79794213 0.59335778 27.83984375 4.3828125 C29.89986528 7.25435766 29.58195693 10.13347495 29.4921875 13.5546875 C28.9344354 16.32574157 28.33359199 17.21692854 26.1875 19 C25.135625 19.66 24.08375 20.32 23 21 C22.01 21.66 21.02 22.32 20 23 C20.63808594 23.68707031 21.27617188 24.37414062 21.93359375 25.08203125 C22.75988281 25.98308594 23.58617188 26.88414062 24.4375 27.8125 C25.26121094 28.70582031 26.08492187 29.59914062 26.93359375 30.51953125 C29 33 29 33 30 36 C26.3893252 36.89882756 23.58817225 37.06964485 20 36 C16.76167626 33.13284995 14.43438853 29.50581601 12.03125 25.94140625 C10.32109974 22.95977384 10.32109974 22.95977384 8 22 C8 26.62 8 31.24 8 36 C5.36 36 2.72 36 0 36 C0 24.12 0 12.24 0 0 Z " fill="#F1F2F5" transform="translate(102,128)"/>
<path d="M0 0 C1.77007714 -0.08114106 3.54122098 -0.13925505 5.3125 -0.1875 C6.29863281 -0.22230469 7.28476563 -0.25710937 8.30078125 -0.29296875 C11 0 11 0 12.83203125 1.3515625 C14.48605104 3.68599845 14.42913579 5.21061733 14 8 C10.57905758 10.28062828 9.31812778 10.21925007 5.3125 10.125 C3.82169922 10.09792969 3.82169922 10.09792969 2.30078125 10.0703125 C1.54152344 10.04710937 0.78226562 10.02390625 0 10 C0 6.7 0 3.4 0 0 Z " fill="#122450" transform="translate(110,134)"/>
</svg>
